<svg xmlns="http://www.w3.org/2000/svg" width="115" height="106"><g><defs><linearGradient id="idycWRpoxb4g-554436720" gradientTransform="rotate(55, 0.5, 0.5)"><stop offset="0" stop-color="rgb(247, 247, 247)" stop-opacity="1"></stop><stop offset="1" stop-color="rgb(216, 179, 100)" stop-opacity="1"></stop></linearGradient></defs><path d="M 53 0 C 67.409 0 80.474 5.75 90.028 15.08 L 88.336 16.226 C 79.17 7.416 66.717 2 53 2 C 24.833 2 2 24.833 2 53 C 2 81.167 24.833 104 53 104 C 72.083 104 88.718 93.519 97.463 78 L 99.745 78 C 90.814 94.665 73.23 106 53 106 C 23.729 106 0 82.271 0 53 C 0 23.729 23.729 0 53 0 Z M 53 4 C 66.026 4 77.865 9.083 86.641 17.373 L 84.943 18.523 C 76.559 10.751 65.334 6 53 6 C 27.043 6 6 27.043 6 53 C 6 78.957 27.043 100 53 100 C 69.77 100 84.489 91.217 92.807 78 L 95.151 78 C 86.61 92.37 70.93 102 53 102 C 25.938 102 4 80.062 4 53 C 4 25.938 25.938 4 53 4 Z" fill="url(#idycWRpoxb4g-554436720)"></path></g><g transform="translate(58 28)"><path d="M 7 36 L 49 36 C 52.866 36 56 39.134 56 43 C 56 46.866 52.866 50 49 50 L 7 50 C 3.134 50 0 46.866 0 43 C 0 39.134 3.134 36 7 36 Z M 1.982 43 C 1.982 45.761 4.221 48 6.982 48 L 48.982 48 C 51.744 48 53.982 45.761 53.982 43 C 53.982 40.239 51.744 38 48.982 38 L 6.982 38 C 4.221 38 1.982 40.239 1.982 43 Z M 8.035 40 L 48.035 40 C 49.692 40 51.035 41.343 51.035 43 C 51.035 44.657 49.692 46 48.035 46 L 8.035 46 C 6.378 46 5.035 44.657 5.035 43 C 5.035 41.343 6.378 40 8.035 40 Z" fill="rgb(184, 184, 184)"></path><path d="M 7 18 L 49 18 C 52.866 18 56 21.134 56 25 C 56 28.866 52.866 32 49 32 L 7 32 C 3.134 32 0 28.866 0 25 C 0 21.134 3.134 18 7 18 Z M 4.93 25 C 4.93 26.657 6.273 28 7.93 28 L 47.93 28 C 49.587 28 50.93 26.657 50.93 25 C 50.93 23.343 49.587 22 47.93 22 L 7.93 22 C 6.273 22 4.93 23.343 4.93 25 Z" fill="rgb(247, 247, 247)"></path><path d="M 7 0 L 49 0 C 52.866 0 56 3.134 56 7 C 56 10.866 52.866 14 49 14 L 7 14 C 3.134 14 0 10.866 0 7 C 0 3.134 3.134 0 7 0 Z M 1.982 7 C 1.982 9.761 4.221 12 6.982 12 L 48.982 12 C 51.744 12 53.982 9.761 53.982 7 C 53.982 4.239 51.744 2 48.982 2 L 6.982 2 C 4.221 2 1.982 4.239 1.982 7 Z M 8.035 4 L 48.035 4 C 49.692 4 51.035 5.343 51.035 7 C 51.035 8.657 49.692 10 48.035 10 L 8.035 10 C 6.378 10 5.035 8.657 5.035 7 C 5.035 5.343 6.378 4 8.035 4 Z" fill="rgb(184, 184, 184)"></path></g></svg>